<svg xmlns="http://www.w3.org/2000/svg" xmlns:xlink="http://www.w3.org/1999/xlink" width="444" height="410pt" viewBox="0 0 332.61 410"><g id="graph0" class="graph" transform="scale(1 1) rotate(0) translate(4 406)"><title>%3</title><polygon fill="#fff" stroke="transparent" points="-4 4 -4 -406 328.609 -406 328.609 4 -4 4"/><g id="node1" class="node"><title>a.py (Module)</title><path fill="none" stroke="#000" stroke-dasharray="1 5" d="M84.1348,-262C84.1348,-262 11.955,-262 11.955,-262 5.955,-262 -.045,-256 -.045,-250 -.045,-250 -.045,-238 -.045,-238 -.045,-232 5.955,-226 11.955,-226 11.955,-226 84.1348,-226 84.1348,-226 90.1348,-226 96.1348,-232 96.1348,-238 96.1348,-238 96.1348,-250 96.1348,-250 96.1348,-256 90.1348,-262 84.1348,-262"/><text x="48.045" y="-239.8" fill="#000" font-family="Times,serif" font-size="14" text-anchor="middle">a.py (Module)</text></g><g id="node7" class="node"><title>a.py::foo (Function [1, 1] - [3, 1])</title><g id="a_node7"><a xlink:title="[1, 1] - [3, 1]"><path fill="none" stroke="#000" d="M184.8109,-122C184.8109,-122 111.2789,-122 111.2789,-122 105.2789,-122 99.2789,-116 99.2789,-110 99.2789,-110 99.2789,-98 99.2789,-98 99.2789,-92 105.2789,-86 111.2789,-86 111.2789,-86 184.8109,-86 184.8109,-86 190.8109,-86 196.8109,-92 196.8109,-98 196.8109,-98 196.8109,-110 196.8109,-110 196.8109,-116 190.8109,-122 184.8109,-122"/><text x="148.045" y="-99.8" fill="#000" font-family="Times,serif" font-size="14" text-anchor="middle">foo (Function)</text></a></g></g><g id="edge1" class="edge"><title>a.py (Module)-&gt;a.py::foo (Function [1, 1] - [3, 1])</title><path fill="none" stroke="red" d="M60.9135,-225.9841C78.219,-201.7563 109.12,-158.4949 129.0891,-130.5382"/><polygon fill="red" stroke="red" points="131.944 -132.563 134.908 -122.391 126.248 -128.494 131.944 -132.563"/><text x="117.876" y="-185.8" fill="#000" font-family="Times,serif" font-size="14" text-anchor="middle">defines</text></g><g id="node2" class="node"><title>main.py (Module)</title><path fill="none" stroke="#000" stroke-dasharray="1 5" d="M200.9141,-402C200.9141,-402 107.1757,-402 107.1757,-402 101.1757,-402 95.1757,-396 95.1757,-390 95.1757,-390 95.1757,-378 95.1757,-378 95.1757,-372 101.1757,-366 107.1757,-366 107.1757,-366 200.9141,-366 200.9141,-366 206.9141,-366 212.9141,-372 212.9141,-378 212.9141,-378 212.9141,-390 212.9141,-390 212.9141,-396 206.9141,-402 200.9141,-402"/><text x="154.045" y="-379.8" fill="#000" font-family="Times,serif" font-size="14" text-anchor="middle">main.py (Module)</text></g><g id="edge2" class="edge"><title>main.py (Module)-&gt;a.py (Module)</title><path fill="none" stroke="#000" d="M100.9885,-365.9661C79.1556,-355.3239 56.7292,-339.2668 47.0449,-316 41.397,-302.4308 41.1477,-286.139 42.5296,-272.4873"/><polygon fill="#000" stroke="#000" points="46.048 -272.586 43.916 -262.207 39.111 -271.65 46.048 -272.586"/><text x="93.435" y="-336.8" fill="#000" font-family="Times,serif" font-size="14" text-anchor="middle">imports</text></g><g id="node3" class="node"><title>numpy (Module)</title><path fill="none" stroke="#000" stroke-dasharray="1 5" d="M155.8109,-316C155.8109,-316 68.279,-316 68.279,-316 62.279,-316 56.279,-310 56.279,-304 56.279,-304 56.279,-292 56.279,-292 56.279,-286 62.279,-280 68.279,-280 68.279,-280 155.8109,-280 155.8109,-280 161.8109,-280 167.8109,-286 167.8109,-292 167.8109,-292 167.8109,-304 167.8109,-304 167.8109,-310 161.8109,-316 155.8109,-316"/><text x="112.045" y="-293.8" fill="#000" font-family="Times,serif" font-size="14" text-anchor="middle">numpy (Module)</text></g><g id="edge3" class="edge"><title>main.py (Module)-&gt;numpy (Module)</title><path fill="none" stroke="#000" d="M141.5019,-365.7227C137.9566,-360.1633 134.254,-353.948 131.2656,-348 127.7638,-341.03 124.4933,-333.26 121.6786,-325.9623"/><polygon fill="#000" stroke="#000" points="124.9 -324.584 118.144 -316.423 118.337 -327.016 124.9 -324.584"/><text x="153.435" y="-336.8" fill="#000" font-family="Times,serif" font-size="14" text-anchor="middle">imports</text></g><g id="node5" class="node"><title>main.py::foo_ (Variable [7, 1] - [7, 5])</title><g id="a_node5"><a xlink:title="[7, 1] - [7, 5]"><path fill="none" stroke="#000" d="M210.6729,-262C210.6729,-262 133.4169,-262 133.4169,-262 127.4169,-262 121.4169,-256 121.4169,-250 121.4169,-250 121.4169,-238 121.4169,-238 121.4169,-232 127.4169,-226 133.4169,-226 133.4169,-226 210.6729,-226 210.6729,-226 216.6729,-226 222.6729,-232 222.6729,-238 222.6729,-238 222.6729,-250 222.6729,-250 222.6729,-256 216.6729,-262 210.6729,-262"/><text x="172.045" y="-239.8" fill="#000" font-family="Times,serif" font-size="14" text-anchor="middle">foo_ (Variable)</text></a></g></g><g id="edge4" class="edge"><title>main.py (Module)-&gt;main.py::foo_ (Variable [7, 1] - [7, 5])</title><path fill="none" stroke="#0f0" d="M165.9663,-365.9735C169.1046,-360.4211 172.1415,-354.1468 174.0449,-348 181.722,-323.2074 180.1489,-293.4742 177.2921,-272.1616"/><polygon fill="#0f0" stroke="#0f0" points="180.733 -271.507 175.773 -262.145 173.812 -272.557 180.733 -271.507"/><text x="189.873" y="-336.8" fill="#000" font-family="Times,serif" font-size="14" text-anchor="middle">calls</text></g><g id="node8" class="node"><title>main.py::qux (Function [4, 1] - [6, 1])</title><g id="a_node8"><a xlink:title="[4, 1] - [6, 1]"><path fill="none" stroke="#000" d="M311.6492,-316C311.6492,-316 236.4406,-316 236.4406,-316 230.4406,-316 224.4406,-310 224.4406,-304 224.4406,-304 224.4406,-292 224.4406,-292 224.4406,-286 230.4406,-280 236.4406,-280 236.4406,-280 311.6492,-280 311.6492,-280 317.6492,-280 323.6492,-286 323.6492,-292 323.6492,-292 323.6492,-304 323.6492,-304 323.6492,-310 317.6492,-316 311.6492,-316"/><text x="274.045" y="-293.8" fill="#000" font-family="Times,serif" font-size="14" text-anchor="middle">qux (Function)</text></a></g></g><g id="edge5" class="edge"><title>main.py (Module)-&gt;main.py::qux (Function [4, 1] - [6, 1])</title><path fill="none" stroke="red" d="M196.2031,-365.9415C206.3744,-360.7811 216.9296,-354.7123 226.0449,-348 235.5406,-341.0076 244.8004,-332.0415 252.6132,-323.6375"/><polygon fill="red" stroke="red" points="255.262 -325.926 259.347 -316.15 250.058 -321.245 255.262 -325.926"/><text x="260.876" y="-336.8" fill="#000" font-family="Times,serif" font-size="14" text-anchor="middle">defines</text></g><g id="node4" class="node"><title>main.py::foo_ (Variable [5, 12] - [5, 16])</title><g id="a_node4"><a xlink:title="[5, 12] - [5, 16]"><path fill="none" stroke="#000" d="M312.6729,-208C312.6729,-208 235.4169,-208 235.4169,-208 229.4169,-208 223.4169,-202 223.4169,-196 223.4169,-196 223.4169,-184 223.4169,-184 223.4169,-178 229.4169,-172 235.4169,-172 235.4169,-172 312.6729,-172 312.6729,-172 318.6729,-172 324.6729,-178 324.6729,-184 324.6729,-184 324.6729,-196 324.6729,-196 324.6729,-202 318.6729,-208 312.6729,-208"/><text x="274.045" y="-185.8" fill="#000" font-family="Times,serif" font-size="14" text-anchor="middle">foo_ (Variable)</text></a></g></g><g id="edge6" class="edge"><title>main.py::foo_ (Variable [5, 12] - [5, 16])-&gt;a.py::foo (Function [1, 1] - [3, 1])</title><path fill="none" stroke="#00f" d="M247.6312,-171.9716C228.8148,-159.1286 203.3349,-141.7376 182.8589,-127.7619"/><polygon fill="#00f" stroke="#00f" points="184.656 -124.751 174.424 -122.005 180.71 -130.533 184.656 -124.751"/><text x="246.797" y="-142.8" fill="#000" font-family="Times,serif" font-size="14" text-anchor="middle">references</text></g><g id="edge7" class="edge"><title>main.py::foo_ (Variable [7, 1] - [7, 5])-&gt;a.py::foo (Function [1, 1] - [3, 1])</title><path fill="none" stroke="#00f" d="M162.8094,-225.7163C160.3767,-220.1567 158.0211,-213.9429 156.541,-208 150.315,-183.0011 148.3844,-153.6829 147.8982,-132.5587"/><polygon fill="#00f" stroke="#00f" points="151.395 -132.277 147.761 -122.325 144.395 -132.371 151.395 -132.277"/><text x="185.797" y="-185.8" fill="#000" font-family="Times,serif" font-size="14" text-anchor="middle">references</text></g><g id="node6" class="node"><title>a.py::x (Variable [2, 12] - [2, 13])</title><g id="a_node6"><a xlink:title="[2, 12] - [2, 13]"><path fill="none" stroke="#000" d="M177.5121,-36C177.5121,-36 118.5778,-36 118.5778,-36 112.5778,-36 106.5778,-30 106.5778,-24 106.5778,-24 106.5778,-12 106.5778,-12 106.5778,-6 112.5778,0 118.5778,0 118.5778,0 177.5121,0 177.5121,0 183.5121,0 189.5121,-6 189.5121,-12 189.5121,-12 189.5121,-24 189.5121,-24 189.5121,-30 183.5121,-36 177.5121,-36"/><text x="148.045" y="-13.8" fill="#000" font-family="Times,serif" font-size="14" text-anchor="middle">x (Variable)</text></a></g></g><g id="edge8" class="edge"><title>a.py::foo (Function [1, 1] - [3, 1])-&gt;a.py::x (Variable [2, 12] - [2, 13])</title><path fill="none" stroke="#0f0" d="M148.0449,-85.7616C148.0449,-74.3597 148.0449,-59.4342 148.0449,-46.494"/><polygon fill="#0f0" stroke="#0f0" points="151.545 -46.212 148.045 -36.212 144.545 -46.212 151.545 -46.212"/><text x="160.873" y="-56.8" fill="#000" font-family="Times,serif" font-size="14" text-anchor="middle">calls</text></g><g id="edge9" class="edge"><title>main.py::qux (Function [4, 1] - [6, 1])-&gt;main.py::foo_ (Variable [5, 12] - [5, 16])</title><path fill="none" stroke="#0f0" d="M274.0449,-279.6793C274.0449,-262.821 274.0449,-237.5651 274.0449,-218.147"/><polygon fill="#0f0" stroke="#0f0" points="277.545 -218.05 274.045 -208.05 270.545 -218.05 277.545 -218.05"/><text x="286.873" y="-239.8" fill="#000" font-family="Times,serif" font-size="14" text-anchor="middle">calls</text></g></g></svg>