<svg xmlns="http://www.w3.org/2000/svg" xmlns:xlink="http://www.w3.org/1999/xlink" width="292pt" height="130pt" viewBox="0 0 292.04 130"><g id="graph0" class="graph" transform="scale(1 1) rotate(0) translate(4 126)"><title>%3</title><polygon fill="#fff" stroke="transparent" points="-4 4 -4 -126 288.038 -126 288.038 4 -4 4"/><g id="node1" class="node"><title>a.py (Module)</title><path fill="none" stroke="#000" stroke-dasharray="1 5" d="M84.1348,-36C84.1348,-36 11.955,-36 11.955,-36 5.955,-36 -.045,-30 -.045,-24 -.045,-24 -.045,-12 -.045,-12 -.045,-6 5.955,0 11.955,0 11.955,0 84.1348,0 84.1348,0 90.1348,0 96.1348,-6 96.1348,-12 96.1348,-12 96.1348,-24 96.1348,-24 96.1348,-30 90.1348,-36 84.1348,-36"/><text x="48.045" y="-13.8" fill="#000" font-family="Times,serif" font-size="14" text-anchor="middle">a.py (Module)</text></g><g id="node2" class="node"><title>main.py (Module)</title><path fill="none" stroke="#000" stroke-dasharray="1 5" d="M169.9141,-122C169.9141,-122 76.1757,-122 76.1757,-122 70.1757,-122 64.1757,-116 64.1757,-110 64.1757,-110 64.1757,-98 64.1757,-98 64.1757,-92 70.1757,-86 76.1757,-86 76.1757,-86 169.9141,-86 169.9141,-86 175.9141,-86 181.9141,-92 181.9141,-98 181.9141,-98 181.9141,-110 181.9141,-110 181.9141,-116 175.9141,-122 169.9141,-122"/><text x="123.045" y="-99.8" fill="#000" font-family="Times,serif" font-size="14" text-anchor="middle">main.py (Module)</text></g><g id="edge1" class="edge"><title>main.py (Module)-&gt;a.py (Module)</title><path fill="none" stroke="#000" d="M107.1394,-85.7616C96.4997,-73.5615 82.342,-57.3273 70.5516,-43.8076"/><polygon fill="#000" stroke="#000" points="73.138 -41.448 63.928 -36.212 67.862 -46.049 73.138 -41.448"/><text x="111.435" y="-56.8" fill="#000" font-family="Times,serif" font-size="14" text-anchor="middle">imports</text></g><g id="node3" class="node"><title>numpy (Unknown Module)</title><path fill="none" stroke="red" stroke-dasharray="1 5" d="M272.0313,-36C272.0313,-36 126.0586,-36 126.0586,-36 120.0586,-36 114.0586,-30 114.0586,-24 114.0586,-24 114.0586,-12 114.0586,-12 114.0586,-6 120.0586,0 126.0586,0 126.0586,0 272.0313,0 272.0313,0 278.0313,0 284.0313,-6 284.0313,-12 284.0313,-12 284.0313,-24 284.0313,-24 284.0313,-30 278.0313,-36 272.0313,-36"/><text x="199.045" y="-13.8" fill="red" font-family="Times,serif" font-size="14" text-anchor="middle">numpy (Unknown Module)</text></g><g id="edge2" class="edge"><title>main.py (Module)-&gt;numpy (Unknown Module)</title><path fill="none" stroke="#000" d="M139.1626,-85.7616C149.944,-73.5615 164.2905,-57.3273 176.2382,-43.8076"/><polygon fill="#000" stroke="#000" points="178.951 -46.023 182.951 -36.212 173.706 -41.388 178.951 -46.023"/><text x="186.435" y="-56.8" fill="#000" font-family="Times,serif" font-size="14" text-anchor="middle">imports</text></g></g></svg>